<svg width="412" height="217" viewBox="0 0 412 217" fill="none" xmlns="http://www.w3.org/2000/svg">
<path d="M87.094 86L60.237 38.064L86.238 0.399999H52.64L34.557 28.969V0.399999H0.852V86H34.557V69.308L39.051 63.102L52.105 86H87.094ZM136.603 86V68.024H114.347V50.262H129.006V33.998H114.347V17.199H136.603V0.399999H91.3422V86H136.603ZM188.431 86V68.024H166.175V50.262H180.834V33.998H166.175V17.199H188.431V0.399999H143.17V86H188.431ZM283.166 28.006C283.166 12.812 270.219 0.399999 249.889 0.399999H194.998V86H228.81V55.719H249.889C270.219 55.719 283.166 43.307 283.166 28.006ZM247.321 31.965C247.321 34.64 244.86 37.636 241.757 37.636H228.81V26.294H241.757C244.86 26.294 247.321 29.183 247.321 31.965ZM52.64 166.492V146.162C52.64 135.355 42.261 128.4 31.24 128.4H0.852V214H23.857V184.254H31.24C42.261 184.254 52.64 177.406 52.64 166.492ZM31.133 163.496C31.133 165.957 29.635 166.92 27.174 166.92H23.857V145.734H27.174C29.635 145.734 31.133 146.697 31.133 149.158V163.496ZM92.8636 214V198.806H76.3856V128.4H59.1586V214H92.8636ZM152.906 214L137.498 128.4H109.999L94.8047 214H115.242L116.954 202.765H127.975L129.152 214H152.906ZM126.049 184.361H119.522L123.053 157.29L126.049 184.361ZM251.342 128.4H217.53L204.262 153.973L191.636 128.4H152.902L184.574 180.402V214H218.386V180.402L251.342 128.4ZM279.141 214V128.4H256.136V214H279.141ZM346.008 214V128.4H325.571V169.381L307.167 128.4H287.265V214H307.809V173.768L327.069 214H346.008ZM411.716 214V171.093H382.291V184.575H388.711V193.028C388.711 195.275 386.892 197.201 382.933 197.201C379.295 197.201 377.155 195.275 377.155 193.028V148.837C377.155 146.59 379.509 145.199 382.291 145.199C385.18 145.199 387.32 146.59 387.32 148.837V160.607H411.074V146.376C411.074 137.602 399.625 126.26 382.291 126.26C364.85 126.26 353.08 137.602 353.08 146.376V196.024C353.08 205.654 362.603 216.14 379.295 216.14C385.929 216.14 393.74 212.181 395.773 209.292L398.341 214H411.716Z" fill="#3C77CE"/>
</svg>
